<?xml version="1.0" encoding="utf-8"?>
<!-- Generator: Adobe Illustrator 19.0.0, SVG Export Plug-In . SVG Version: 6.00 Build 0)  -->
<svg version="1.2" baseProfile="tiny" xmlns="http://www.w3.org/2000/svg" xmlns:xlink="http://www.w3.org/1999/xlink" x="0px"
	 y="0px" viewBox="-41 164.9 626.8 552.7" xml:space="preserve">
<g id="Layer_1" display="none">
	<g transform="translate(0 -540.36)" display="inline">
		<g>
			<g>
				<path fill="#5CE419" d="M468.7,842.7c3-3.2,3-8.2-0.1-11.3L344.9,707.6c-1.5-1.5-3.6-2.4-5.7-2.4c-2.2,0-4.2,0.9-5.7,2.4
					c-6.6,6.5-15.5,10.1-25.2,10.1s-18.6-3.6-25.2-10.1c-1.5-1.5-3.6-2.4-5.7-2.4s-4.2,0.9-5.7,2.4l-310.2,310.2
					c-3.1,3.1-3.1,8.3,0,11.4c13.7,13.7,13.7,36.8,0,50.4c-3.1,3.1-3.1,8.3,0,11.4l123.7,123.7c3.1,3.1,8.2,3.1,11.3,0.1
					c14.3-13.6,37-13.7,50.6-0.1c1.6,1.6,3.7,2.4,5.7,2.4l0,0c2,0,4.1-0.8,5.7-2.4l310.2-309.4c3.1-3.1,3.1-8.1,0.1-11.3
					C454.9,879.8,454.9,857.1,468.7,842.7z M452,899.2l-299.8,299c-17.9-12.8-42.6-12.7-60.9,0.1L-21.9,1085c12.8-18,12.8-43,0-61.1
					l299.7-299.7c8.7,6.4,19.3,9.7,30.5,9.7c11.2,0,21.8-3.4,30.5-9.7L452,837.5C439,856,439,880.7,452,899.2z"/>
				<path fill="#5CE419" d="M362.6,802.2l-61,61.9c-3.1,3.1-3,8.3,0.1,11.4c1.6,1.6,3.7,2.4,5.7,2.4l0,0c2.2,0,4.2-0.9,5.7-2.5
					l61-61.9c3.1-3.1,3-8.3-0.1-11.4C370.9,798.9,365.7,799,362.6,802.2z"/>
				<path fill="#5CE419" d="M117.9,1047.9l-61.9,61c-3.2,3.1-3.2,8.3-0.1,11.4c1.5,1.6,3.7,2.4,5.7,2.4l0,0c2,0,4.1-0.8,5.7-2.3
					l61.9-61c3.2-3.1,3.2-8.3,0.1-11.4C126.2,1044.8,121,1044.8,117.9,1047.9z"/>
			</g>
		</g>
	</g>
	
		<rect x="129.7" y="201.3" transform="matrix(0.7071 -0.7071 0.7071 0.7071 -160.1907 389.6376)" display="inline" fill="none" width="521" height="373.8"/>
	
		<text transform="matrix(0.7071 -0.7071 0.7071 0.7071 179.3026 545.6401)" display="inline" fill="#5CE419" font-family="'MyriadPro-Regular'" font-size="210px">90</text>
	<g transform="translate(0 -540.36)" display="inline">
		<g>
			<g>
				<path fill="#5CE419" d="M572.6,1236.8c2.3,0.1,4.3-1.5,4.6-3.9l8.6-92c0.1-1.1-0.2-2.2-1-3.1c-0.7-0.9-1.8-1.4-2.9-1.5
					c-4.8-0.5-9.3-2.9-12.6-6.8s-4.8-8.8-4.4-13.7c0.1-1.1-0.2-2.2-1-3.1c-0.7-0.9-1.8-1.4-2.9-1.5l-230.6-21.6
					c-2.3-0.2-4.4,1.5-4.6,3.8c-1,10.2-10.3,17.9-20.5,17c-2.3-0.2-4.4,1.5-4.6,3.8l-8.6,92c-0.2,2.3,1.5,4.4,3.8,4.6
					c10.3,1.3,18,10.4,17.1,20.5c-0.1,1.2,0.3,2.3,1,3.1l0,0c0.7,0.8,1.7,1.4,2.9,1.5L547,1258c2.3,0.2,4.3-1.5,4.6-3.8
					C552.9,1243.7,562.1,1236.1,572.6,1236.8z M544,1249.1l-222.5-21.2c-0.8-11.6-9.2-21.6-20.6-24.7l7.9-84.2
					c11.6-0.8,21.8-9.3,24.8-20.6l222.7,20.9c0.4,5.7,2.6,11.1,6.3,15.7s8.7,7.7,14.2,9.1l-7.9,84.2
					C557.1,1229.3,547.1,1237.6,544,1249.1z"/>
				<path fill="#5CE419" d="M553.3,1180l-45.7-4c-2.3-0.2-4.4,1.6-4.6,3.9c-0.1,1.2,0.3,2.3,1,3.1l0,0c0.7,0.9,1.8,1.4,2.9,1.5
					l45.7,4c2.3,0.2,4.4-1.6,4.6-3.9C557.4,1182.3,555.6,1180.3,553.3,1180z"/>
				<path fill="#5CE419" d="M371,1163.3l-45.6-4.6c-2.4-0.3-4.5,1.5-4.7,3.8c-0.1,1.2,0.3,2.3,1,3.1l0,0c0.7,0.8,1.7,1.4,2.8,1.6
					l45.6,4.6c2.4,0.3,4.5-1.5,4.7-3.8C375.1,1165.7,373.4,1163.6,371,1163.3z"/>
			</g>
		</g>
	</g>
	
		<rect x="373.8" y="594.8" transform="matrix(0.9956 9.345877e-002 -9.345877e-002 0.9956 67.0505 -44.7465)" display="inline" fill="none" width="275" height="197.3"/>
	
		<text transform="matrix(0.9956 9.345873e-002 -9.345885e-002 0.9956 376.2337 660.7672)" display="inline" fill="#5CE419" font-family="'MyriadPro-Regular'" font-size="110.8432px">25</text>
	
		<rect x="390.2" y="393.6" transform="matrix(1 4.572498e-003 -4.572498e-003 1 2.4925 -2.6171)" display="inline" fill="none" width="366.7" height="300.3"/>
	
		<text transform="matrix(1 4.572505e-003 -4.572103e-003 1 390.2449 541.9019)" display="inline" fill="#5CE419" font-family="'MyriadPro-Regular'" font-size="210px">+</text>
</g>
<g id="Layer_2" display="none">
	<g display="inline">
		<path fill="#5CE419" d="M449.7,234.4c-60.8,9.7-102.3,67.1-92.6,127.9c1.6,10.2,5,19.5,9.1,28.5l-33,76.8
			c-6.1-0.4-12.3-0.3-18.5,0.7c-19.5,3.1-36,13.2-48.1,27.1l-141-36.7c-0.2-1.6,0-3.1-0.3-4.7c-7.1-44.2-48.8-74.3-92.9-67.3
			c-44.1,7.1-74.3,48.7-67.3,92.9s48.8,74.3,92.9,67.3c16.4-2.6,30.9-10,42.3-20.6l148,38.6c8.8,42.1,49.1,70.5,92,63.6
			c44.2-7.1,74.3-48.8,67.3-92.9c-0.5-3.3-1.6-6.4-2.5-9.6l64.8-70.2c5-0.1,10-0.1,15.1-0.9c60.8-9.7,102.3-67.1,92.6-127.9
			C567.9,266.2,510.5,224.7,449.7,234.4z M7.7,472.8c-3.3-20.7,10.8-40.2,31.5-43.6c20.7-3.3,40.3,10.8,43.6,31.5
			c3.3,20.7-10.8,40.2-31.6,43.6C30.6,507.6,11,493.5,7.7,472.8z M333.8,587.1c-21.4,3.4-41.7-11.2-45.1-32.6
			c-3.4-21.4,11.2-41.7,32.7-45.1c21.4-3.4,41.7,11.2,45.1,32.7S355.2,583.7,333.8,587.1z M477.5,407.6
			c-34.7,5.6-67.5-18.2-73.1-52.9s18.2-67.5,52.9-73.1s67.5,18.2,73.1,52.9S512.2,402,477.5,407.6z"/>
	</g>
</g>
<g id="Layer_3" display="none">
	<g display="inline">
		<g>
			<path fill="#5CE419" d="M492.2,302.3h-96.8c8.2-3,15.2-6.1,20.5-9.2c32.9-19,44.1-61,25.1-93.8c-12.7-22-35.8-34.4-59.6-34.4
				c-11.7,0-23.5,3-34.3,9.2c-20.5,11.9-55.8,46.1-74.8,78.1c-19-32-54.3-66.3-74.8-78.1c-10.8-6.2-22.6-9.2-34.3-9.2
				c-23.7,0-46.8,12.3-59.6,34.4c-19,32.9-7.7,74.9,25.1,93.8c5.3,3,12.3,6.2,20.5,9.2H52.6c-15.2,0-27.5,12.3-27.5,27.5v82.4
				c0,15.2,12.3,27.5,27.5,27.5V687c0,15.2,12.3,27.5,27.5,27.5h137.4h109.9h137.4c15.2,0,27.5-12.3,27.5-27.5V439.7
				c15.2,0,27.5-12.3,27.5-27.5v-82.4C519.7,314.6,507.4,302.3,492.2,302.3z M361,197.9c6.3-3.6,13.4-5.5,20.5-5.5
				c14.7,0,28.4,7.9,35.8,20.6c11.4,19.7,4.6,44.9-15.1,56.3c-15.6,9-59.6,22.1-93.1,22.1c-12.6,0-19.4-1.9-22.2-3.2
				C287.1,269.5,331.6,214.9,361,197.9z M190,687H80.1V439.7H190L190,687L190,687z M190,412.2H80.1H52.6v-82.4H190V412.2z
				 M142.6,269.3c-19.7-11.4-26.5-36.6-15.1-56.3c7.3-12.7,21-20.6,35.8-20.6c7.2,0,14.3,1.9,20.5,5.5c29.4,17,73.8,71.6,74.2,90.3
				c-2.8,1.3-9.7,3.2-22.2,3.2C202.2,291.4,158.2,278.3,142.6,269.3z M327.4,687H217.4V329.8h109.9V687z M464.8,687H354.8V439.7
				h109.9L464.8,687L464.8,687z M492.2,412.2h-27.5H354.8v-82.4h137.4V412.2z"/>
		</g>
	</g>
</g>
<g id="Layer_4" display="none">
	<g display="inline">
		<g>
			<path fill="#43C11F" d="M546.3,440.3c0-149.2-121.4-270.6-270.5-270.6c-46.3,0-90,11.7-128.2,32.3
				c-58.8-29.3-101.3-33.5-122.8-11.9c-23.5,23.5-14.5,69.6,12.2,123C16.7,351.1,5.1,394.4,5.1,440.3
				c0,149.2,121.4,270.6,270.6,270.6c45.9,0,89.1-11.5,127-31.7c31.5,15.7,61.3,25.8,85.2,25.8c15.4,0,28.4-4.2,37.9-13.6
				c21.6-21.6,17.4-64-11.9-122.8C534.5,530.3,546.3,486.7,546.3,440.3z M37.1,202.6c14.3-14.3,47.6-10.4,92.5,10.3
				c-32.9,21.2-60.9,49.3-82,82.3C26.6,249.4,23.4,216.2,37.1,202.6z M275.7,693.4c-139.6,0-253.1-113.5-253.1-253.1
				c0-38.7,8.8-75.4,24.4-108.2c23.5,42,56.3,87.1,91.9,128.4l-30.7,6.1l3.4,17.1l48.3-9.7l19.2-48l-16.2-6.5l-11.5,28.7
				c-43-49.9-74.5-95.9-94.7-134.6c43.8-75.5,125.6-126.5,219-126.5c139.6,0,253.1,113.5,253.1,253.1c0,93.4-50.9,175.2-126.5,219
				c-28.2-14.8-59.5-35-92.2-60.1l-10.6,13.9c27,20.7,56,40.3,84.3,56.1C351,684.7,314.3,693.4,275.7,693.4z M513.5,679
				c-14.6,14.6-48.6,9.9-92.7-10.5c33-21.1,61.2-49.1,82.4-82C523.9,631.4,527.7,664.7,513.5,679z"/>
			<path fill="#43C11F" d="M363,501.4c0-38.5-31.3-69.8-69.8-69.8h-34.9c-28.9,0-52.4-23.5-52.4-52.4c0-28.9,23.5-52.4,52.4-52.4
				h34.9c28.9,0,52.4,23.5,52.4,52.4v8.7H363v-8.7c0-38.5-31.3-69.8-69.8-69.8h-8.7v-34.9H267v34.9h-8.7
				c-38.5,0-69.8,31.3-69.8,69.8s31.3,69.8,69.8,69.8h34.9c28.9,0,52.4,23.5,52.4,52.4s-23.5,52.4-52.4,52.4h-34.9
				c-28.9,0-52.4-23.5-52.4-52.4v-8.7h-17.5v8.7c0,38.5,31.3,69.8,69.8,69.8h8.7v34.9h17.5v-34.9h8.7
				C331.7,571.2,363,539.9,363,501.4z"/>
		</g>
	</g>
</g>
<g id="Layer_5">
	<g>
		<path fill="#5CE419" d="M492.5,241c-1.2-4.1-5.3-6.7-9.6-6.2c-0.4,0-37,4.5-82.4-1.2c-41.4-5.2-98.5-20.1-135.7-61.9
			c-1.7-2-4.2-3-6.6-3c-0.1,0-0.1,0-0.2,0c-2.4,0-4.9,1-6.6,3c-37,41.6-94,56.6-135.2,61.8c-45.4,5.7-82.5,1.3-82.8,1.2
			c-4.3-0.5-8.3,2.1-9.6,6.2C10.1,286.6,7.5,375.6,34.4,463.3c15.9,52,40.5,98.6,72.9,138.4c38.4,47.2,87.9,84.7,147.1,111.5
			c1.1,0.5,2.4,0.8,3.6,0.8h0.2c1.3,0,2.5-0.3,3.6-0.8c59.2-26.8,108.7-64.3,147.1-111.5c32.4-39.8,57-86.4,72.9-138.4
			C508.8,375.6,506.2,286.6,492.5,241z M465,458.1c-15.3,49.8-38.7,94.4-69.7,132.4c-35.9,44.1-82.1,79.4-137.2,105
			c-55.1-25.5-101.2-60.8-137.2-105c-31-38.1-54.4-82.6-69.7-132.4c-25.9-84.5-22-165.7-12.4-205c13.6,1.1,43.6,2.5,79.1-1.9
			c59.6-7.5,107.8-28.4,140.2-60.8c32.4,32.4,80.6,53.3,140.2,60.8c35.6,4.5,65.7,3,79.2,1.9C494.3,318.5,479.6,410.6,465,458.1
			L465,458.1z"/>
		<path fill="#5CE419" d="M324.6,389.6c0,4.9,4,8.8,8.8,8.8c4.9,0,8.8-4,8.8-8.8c0-16.8-9.2-32.4-25.9-43.9
			c-8.8-6.1-19.3-10.6-30.6-13.4v-13.3c0-4.9-4-8.8-8.8-8.8c-4.9,0-8.8,4-8.8,8.8v10.4c-3.3-0.3-6.6-0.4-10-0.4
			c-3.4,0-6.7,0.2-10,0.4v-10.4c0-4.9-4-8.8-8.8-8.8s-8.8,4-8.8,8.8v13.3c-11.3,2.8-21.8,7.3-30.6,13.4
			c-16.7,11.5-25.9,27.1-25.9,43.9s9.2,32.4,25.9,43.9c8.8,6.1,19.3,10.6,30.6,13.4v85.2c-22.7-6.9-38.9-22-38.9-38.9
			c0-4.9-4-8.8-8.8-8.8s-8.8,4-8.8,8.8c0,16.8,9.2,32.4,25.9,43.9c8.8,6.1,19.3,10.6,30.6,13.4v13.3c0,4.9,4,8.8,8.8,8.8
			s8.8-4,8.8-8.8v-10.4c3.3,0.3,6.6,0.4,10,0.4c3.4,0,6.7-0.2,10-0.4v10.4c0,4.9,4,8.8,8.8,8.8c4.9,0,8.8-4,8.8-8.8v-13.3
			c11.3-2.8,21.8-7.3,30.6-13.4c16.7-11.5,25.9-27.1,25.9-43.9c0-16.8-9.2-32.4-25.9-43.9c-8.8-6.1-19.3-10.6-30.6-13.4v-85.2
			C308.4,357.6,324.6,372.6,324.6,389.6L324.6,389.6z M191.5,389.6c0-17,16.2-32,38.9-38.9v77.9
			C207.7,421.6,191.5,406.5,191.5,389.6z M258,536.2c-3.4,0-6.7-0.2-10-0.5v-85.9c3.3,0.3,6.6,0.4,10,0.4c3.4,0,6.7,0.2,10,0.5v84.9
			C264.8,536,261.4,536.2,258,536.2z M324.6,493.2c0,17-16.2,32-38.9,38.9v-77.9C308.4,461.2,324.6,476.2,324.6,493.2z M268.1,433
			c-3.3-0.3-6.6-0.4-10-0.4c-3.4,0-6.7-0.2-10-0.5v-84.9c3.3-0.3,6.6-0.5,10-0.5c3.4,0,6.7,0.2,10,0.5V433z"/>
		<path fill="#5CE419" d="M453.5,274.2c-1.8,0-3.7,0-5.6,0c-43,0-124.2-6.8-184.4-52.6c-3.2-2.4-7.5-2.4-10.7,0
			c-60.2,45.8-141.4,52.6-184.4,52.6c-1.9,0-3.8,0-5.6,0c0,0-0.1,0-0.1,0c-4.4,0-8.2,3.3-8.8,7.7c-3.1,24.9-7.8,91.2,16.5,170.4
			c30.5,99.3,92.3,173.1,183.8,219.1c1.2,0.6,2.6,0.9,4,0.9c1.4,0,2.7-0.3,4-0.9c91.5-46.1,153.3-119.8,183.8-219.1
			c24.3-79.1,19.6-145.5,16.5-170.4C461.8,277.4,458,274.1,453.5,274.2L453.5,274.2z M429,447.1c-28.5,93.1-86,162.6-170.8,206.5
			c-84.8-43.9-142.3-113.4-170.8-206.5C66,377.6,68.2,317.3,70.6,291.9c22-0.1,54.6-2,89.2-9.9c38.1-8.7,71.1-23,98.3-42.4
			c27.2,19.4,60.2,33.6,98.3,42.4c34.6,7.9,67.3,9.8,89.2,9.9C448.1,317.3,450.3,377.6,429,447.1L429,447.1z"/>
	</g>
</g>
</svg>
