<?xml version="1.0" encoding="utf-8"?>
<!-- Generator: Adobe Illustrator 19.0.0, SVG Export Plug-In . SVG Version: 6.00 Build 0)  -->
<svg version="1.2" baseProfile="tiny" xmlns="http://www.w3.org/2000/svg" xmlns:xlink="http://www.w3.org/1999/xlink" x="0px"
	 y="0px" viewBox="-41 164.9 626.8 552.7" xml:space="preserve">
<g id="Layer_1" display="none">
	<g transform="translate(0 -540.36)" display="inline">
		<g>
			<g>
				<path fill="#5CE419" d="M468.7,842.7c3-3.2,3-8.2-0.1-11.3L344.9,707.6c-1.5-1.5-3.6-2.4-5.7-2.4c-2.2,0-4.2,0.9-5.7,2.4
					c-6.6,6.5-15.5,10.1-25.2,10.1s-18.6-3.6-25.2-10.1c-1.5-1.5-3.6-2.4-5.7-2.4s-4.2,0.9-5.7,2.4l-310.2,310.2
					c-3.1,3.1-3.1,8.3,0,11.4c13.7,13.7,13.7,36.8,0,50.4c-3.1,3.1-3.1,8.3,0,11.4l123.7,123.7c3.1,3.1,8.2,3.1,11.3,0.1
					c14.3-13.6,37-13.7,50.6-0.1c1.6,1.6,3.7,2.4,5.7,2.4l0,0c2,0,4.1-0.8,5.7-2.4l310.2-309.4c3.1-3.1,3.1-8.1,0.1-11.3
					C454.9,879.8,454.9,857.1,468.7,842.7z M452,899.2l-299.8,299c-17.9-12.8-42.6-12.7-60.9,0.1L-21.9,1085c12.8-18,12.8-43,0-61.1
					l299.7-299.7c8.7,6.4,19.3,9.7,30.5,9.7c11.2,0,21.8-3.4,30.5-9.7L452,837.5C439,856,439,880.7,452,899.2z"/>
				<path fill="#5CE419" d="M362.6,802.2l-61,61.9c-3.1,3.1-3,8.3,0.1,11.4c1.6,1.6,3.7,2.4,5.7,2.4l0,0c2.2,0,4.2-0.9,5.7-2.5
					l61-61.9c3.1-3.1,3-8.3-0.1-11.4C370.9,798.9,365.7,799,362.6,802.2z"/>
				<path fill="#5CE419" d="M117.9,1047.9l-61.9,61c-3.2,3.1-3.2,8.3-0.1,11.4c1.5,1.6,3.7,2.4,5.7,2.4l0,0c2,0,4.1-0.8,5.7-2.3
					l61.9-61c3.2-3.1,3.2-8.3,0.1-11.4C126.2,1044.8,121,1044.8,117.9,1047.9z"/>
			</g>
		</g>
	</g>
	
		<rect x="129.7" y="201.3" transform="matrix(0.7071 -0.7071 0.7071 0.7071 -160.1907 389.6376)" display="inline" fill="none" width="521" height="373.8"/>
	
		<text transform="matrix(0.7071 -0.7071 0.7071 0.7071 179.3026 545.6401)" display="inline" fill="#5CE419" font-family="'MyriadPro-Regular'" font-size="210px">90</text>
	<g transform="translate(0 -540.36)" display="inline">
		<g>
			<g>
				<path fill="#5CE419" d="M572.6,1236.8c2.3,0.1,4.3-1.5,4.6-3.9l8.6-92c0.1-1.1-0.2-2.2-1-3.1c-0.7-0.9-1.8-1.4-2.9-1.5
					c-4.8-0.5-9.3-2.9-12.6-6.8s-4.8-8.8-4.4-13.7c0.1-1.1-0.2-2.2-1-3.1c-0.7-0.9-1.8-1.4-2.9-1.5l-230.6-21.6
					c-2.3-0.2-4.4,1.5-4.6,3.8c-1,10.2-10.3,17.9-20.5,17c-2.3-0.2-4.4,1.5-4.6,3.8l-8.6,92c-0.2,2.3,1.5,4.4,3.8,4.6
					c10.3,1.3,18,10.4,17.1,20.5c-0.1,1.2,0.3,2.3,1,3.1l0,0c0.7,0.8,1.7,1.4,2.9,1.5L547,1258c2.3,0.2,4.3-1.5,4.6-3.8
					C552.9,1243.7,562.1,1236.1,572.6,1236.8z M544,1249.1l-222.5-21.2c-0.8-11.6-9.2-21.6-20.6-24.7l7.9-84.2
					c11.6-0.8,21.8-9.3,24.8-20.6l222.7,20.9c0.4,5.7,2.6,11.1,6.3,15.7s8.7,7.7,14.2,9.1l-7.9,84.2
					C557.1,1229.3,547.1,1237.6,544,1249.1z"/>
				<path fill="#5CE419" d="M553.3,1180l-45.7-4c-2.3-0.2-4.4,1.6-4.6,3.9c-0.1,1.2,0.3,2.3,1,3.1l0,0c0.7,0.9,1.8,1.4,2.9,1.5
					l45.7,4c2.3,0.2,4.4-1.6,4.6-3.9C557.4,1182.3,555.6,1180.3,553.3,1180z"/>
				<path fill="#5CE419" d="M371,1163.3l-45.6-4.6c-2.4-0.3-4.5,1.5-4.7,3.8c-0.1,1.2,0.3,2.3,1,3.1l0,0c0.7,0.8,1.7,1.4,2.8,1.6
					l45.6,4.6c2.4,0.3,4.5-1.5,4.7-3.8C375.1,1165.7,373.4,1163.6,371,1163.3z"/>
			</g>
		</g>
	</g>
	
		<rect x="373.8" y="594.8" transform="matrix(0.9956 9.345877e-002 -9.345877e-002 0.9956 67.0505 -44.7465)" display="inline" fill="none" width="275" height="197.3"/>
	
		<text transform="matrix(0.9956 9.345873e-002 -9.345885e-002 0.9956 376.2337 660.7672)" display="inline" fill="#5CE419" font-family="'MyriadPro-Regular'" font-size="110.8432px">25</text>
	
		<rect x="390.2" y="393.6" transform="matrix(1 4.572498e-003 -4.572498e-003 1 2.4925 -2.6171)" display="inline" fill="none" width="366.7" height="300.3"/>
	
		<text transform="matrix(1 4.572505e-003 -4.572103e-003 1 390.2449 541.9019)" display="inline" fill="#5CE419" font-family="'MyriadPro-Regular'" font-size="210px">+</text>
</g>
<g id="Layer_2">
	<g>
		<path fill="#5CE419" d="M449.7,234.4c-60.8,9.7-102.3,67.1-92.6,127.9c1.6,10.2,5,19.5,9.1,28.5l-33,76.8
			c-6.1-0.4-12.3-0.3-18.5,0.7c-19.5,3.1-36,13.2-48.1,27.1l-141-36.7c-0.2-1.6,0-3.1-0.3-4.7c-7.1-44.2-48.8-74.3-92.9-67.3
			c-44.1,7.1-74.3,48.7-67.3,92.9s48.8,74.3,92.9,67.3c16.4-2.6,30.9-10,42.3-20.6l148,38.6c8.8,42.1,49.1,70.5,92,63.6
			c44.2-7.1,74.3-48.8,67.3-92.9c-0.5-3.3-1.6-6.4-2.5-9.6l64.8-70.2c5-0.1,10-0.1,15.1-0.9c60.8-9.7,102.3-67.1,92.6-127.9
			C567.9,266.2,510.5,224.7,449.7,234.4z M7.7,472.8c-3.3-20.7,10.8-40.2,31.5-43.6c20.7-3.3,40.3,10.8,43.6,31.5
			c3.3,20.7-10.8,40.2-31.6,43.6C30.6,507.6,11,493.5,7.7,472.8z M333.8,587.1c-21.4,3.4-41.7-11.2-45.1-32.6
			c-3.4-21.4,11.2-41.7,32.7-45.1c21.4-3.4,41.7,11.2,45.1,32.7S355.2,583.7,333.8,587.1z M477.5,407.6
			c-34.7,5.6-67.5-18.2-73.1-52.9s18.2-67.5,52.9-73.1s67.5,18.2,73.1,52.9S512.2,402,477.5,407.6z"/>
	</g>
</g>
</svg>
